<svg id="Capa_1" enable-background="new 0 0 512 512" height="512" viewBox="0 0 512 512" width="512" xmlns="http://www.w3.org/2000/svg"><path d="m461.918 160.618h-81.035v-115.942h81.035c9.874 0 17.879 8.005 17.879 17.879v80.184c0 9.874-8.004 17.879-17.879 17.879z" fill="#bb80e0"/><path d="m461.918 313.971h-81.035v-115.942h81.035c9.874 0 17.879 8.005 17.879 17.879v80.184c0 9.874-8.004 17.879-17.879 17.879z" fill="#a1e42c"/><path d="m461.918 467.324h-81.035v-115.942h81.035c9.874 0 17.879 8.005 17.879 17.879v80.184c0 9.874-8.004 17.879-17.879 17.879z" fill="#fc8086"/><path d="m418.229 512h-369.28c-9.249 0-16.746-7.498-16.746-16.746v-478.508c0-9.248 7.497-16.746 16.746-16.746h369.28c9.249 0 16.746 7.498 16.746 16.746v478.507c.001 9.249-7.497 16.747-16.746 16.747z" fill="#fcdd2e"/><path d="m418.229 0h-18.921v495.253c0 9.249-7.498 16.746-16.747 16.746h35.667c9.249 0 16.747-7.498 16.747-16.746v-478.506c.001-9.249-7.497-16.747-16.746-16.747z" fill="#f9c301"/><path d="m87.408 0h-38.459c-9.249 0-16.746 7.498-16.746 16.746v478.507c0 9.249 7.498 16.746 16.746 16.746h38.459z" fill="#fd7e42"/><path d="m159.536 260.48 90.954 90.954c29.329 29.329 76.882 29.329 106.211 0l8.233-8.233c12.017-12.017 11.177-31.744-1.819-42.695l-20.57-17.335c-11.374-9.585-28.193-8.869-38.71 1.649l-11.357 11.357c-4.755 4.755-12.465 4.755-17.22 0l-60.464-60.464c-4.755-4.755-4.755-12.465 0-17.22l11.357-11.357c10.518-10.518 11.234-27.336 1.649-38.71l-17.335-20.57c-10.952-12.995-30.678-13.836-42.695-1.819l-8.233 8.233c-29.33 29.328-29.33 76.88-.001 106.21z" fill="#f1faff"/><g fill="#c7eefb"><path d="m364.934 343.2c12.017-12.017 11.177-31.744-1.819-42.695l-20.57-17.335c-11.374-9.585-28.193-8.869-38.71 1.649l-3.74 3.74z"/><path d="m226.151 207.135c10.518-10.518 11.234-27.336 1.649-38.71l-17.335-20.57c-10.952-12.995-30.678-13.836-42.695-1.819l54.641 64.839z"/></g></svg>