<?xml version="1.0" encoding="utf-8"?>
<!-- Generator: Adobe Illustrator 23.0.2, SVG Export Plug-In . SVG Version: 6.00 Build 0)  -->
<svg version="1.1" id="Layer_1" xmlns="http://www.w3.org/2000/svg" xmlns:xlink="http://www.w3.org/1999/xlink" x="0px" y="0px"
	 viewBox="0 0 511 511" style="enable-background:new 0 0 511 511;" xml:space="preserve">
<style type="text/css">
	.st0{fill:#954C35;}
	.st1{fill:#20B7A1;}
	.st2{fill:#24D3B5;}
	.st3{fill:#FFDE91;}
	.st4{fill:#EDC472;}
	.st5{fill:#FFE89C;}
	.st6{fill:#DBAD5C;}
	.st7{fill:#C0694E;}
	.st8{fill:#C97E67;}
	.st9{fill:#FCF2B6;}
</style>
<path class="st0" d="M37.7,87.9l7.6,13.6l123.3-69.4L161,18.6L37.7,87.9z"/>
<path class="st0" d="M175.4,18.6l-7.6,13.6l129,72.1l7.6-13.6L175.4,18.6z"/>
<path class="st1" d="M508,396.9v17.5c0,28.2-12.1,55-33.3,73.7l-0.9,0.8c-11.9,10.5-27.3,16.3-43.2,16.3H365
	c-8.2,0-16.2-1.5-23.7-4.5s-14.5-7.3-20.5-12.8c-20.2-18.6-31.6-44.8-31.6-72.2v-19.3c0-59.4,30.4-100.3,80.5-132.2l1-0.6V240
	l-17-96c-0.7-3.6,2-6.9,5.6-6.9h77.8c3.6,0,6.3,3.3,5.6,6.9l-16.9,96v23.6l1.1,0.7C477.3,296.1,508,337.3,508,396.9z"/>
<path class="st2" d="M508,396.9v17.5c0,28.2-12.1,55-33.3,73.7l-0.9,0.8c-11.9,10.5-27.3,16.3-43.2,16.3h-39.2
	c-8.2,0-16.2-1.5-23.7-4.5s-14.5-7.3-20.5-12.8c-20.2-18.6-31.6-44.8-31.6-72.2v-19.3c0-59.4,30.4-100.3,80.5-132.2l1-0.6V240
	l-17-96c-0.7-3.6,2-6.9,5.6-6.9h51.4c3.6,0,6.3,3.3,5.6,6.9l-16.9,96v23.6l1.1,0.7C477.3,296.1,508,337.3,508,396.9z"/>
<path class="st3" d="M370.5,240h55.2v23.6h-55.2V240z"/>
<path class="st4" d="M370.5,240H397v23.6h-26.5V240z"/>
<path class="st3" d="M325.1,475.6c-17.8,19.4-41,30.9-65.1,34.3c-31.3,4.5-64.3-4.6-89.5-27.7c-44.5-40.9-47.5-110.1-6.6-154.6
	c25.4-27.6,61.6-39.2,96.2-34.3c21.1,3,41.6,12.2,58.5,27.7C363,361.8,365.9,431.1,325.1,475.6z"/>
<path class="st5" d="M325.1,475.6c-17.8,19.4-41,30.9-65.1,34.3c-21.1-3-41.6-12.2-58.5-27.7c-44.5-40.9-47.5-110.1-6.6-154.6
	c17.8-19.4,41-30.9,65.1-34.3c21.1,3,41.6,12.2,58.5,27.7C363,361.8,365.9,431.1,325.1,475.6z"/>
<path class="st6" d="M321.5,416.2c-3.7,19.3-14.4,36.5-30.2,48.3c-9.6,7.2-20.3,11.8-31.4,14c-28.8,5.8-59.7-4.9-78.4-30
	c-13.1-17.6-18.3-40-14.2-61.5c3.7-19.3,14.4-36.5,30.2-48.3c16.8-12.5,37.5-17.8,58.2-14.8c1.4,0.2,2.8,0.4,4.1,0.7
	c19,3.8,35.8,14.3,47.5,30C320.4,372.2,325.6,394.7,321.5,416.2z"/>
<path class="st4" d="M321.5,416.2c-3.7,19.3-14.4,36.5-30.2,48.3c-9.6,7.2-20.3,11.8-31.4,14c-18.3-3.7-35.4-13.8-47.4-30
	c-13.1-17.6-18.3-40-14.2-61.5c3.7-19.3,14.4-36.5,30.2-48.3c9.5-7,20.1-11.8,31.3-14.1c19,3.8,35.8,14.3,47.5,30
	C320.4,372.2,325.6,394.7,321.5,416.2z"/>
<path class="st7" d="M329,93.4v154.9c0,7.7-6.3,14-14,14H22.1c-7.7,0-14-6.3-14-14V93.4c0-7.7,6.3-14,14-14H315
	C322.8,79.4,329,85.7,329,93.4z"/>
<path class="st8" d="M329,93.4v131.7H50.5c-7.7,0-14-6.3-14-14V79.4H315C322.8,79.4,329,85.7,329,93.4z"/>
<g>
	<path class="st3" d="M83.5,196H52.9v-72.4c0-5.2-9-6.1-13.8-3.8c-1.7,0.8-2.5,2.1-2.5,3.8v81.6c0,1.7,0.7,2.9,2.2,3.8
		c2.9,1.8,1.1,1.3,44.7,1.3C89.9,210.3,90.1,196,83.5,196z"/>
	<path class="st3" d="M145.1,125.1c-12.5-10.6-50.3-12-50.3,22.2c0,37.2-0.7,41.3,2.3,48.4c2.9,7,8.1,11.6,15.5,13.8
		c10.5,3.1,31.8,3.2,38.8-13.8c2.9-7,2.3-11.1,2.3-48.4C153.6,138.8,151.6,130.6,145.1,125.1z M137.3,182.3c0,5-1.2,8.7-3.5,11
		c-4.8,4.7-14.8,4.6-19.3,0c-2.3-2.3-3.4-6-3.4-11c0-37.3-1-41.5,3.4-46c4.5-4.6,14.5-4.7,19.3,0C138.4,140.8,137.3,145,137.3,182.3
		z"/>
	<path class="st3" d="M185.6,123.3c-26.3,85.8-25.5,80.4-23.5,83c3.4,4.2,13.3,6.1,14.8,0.8l4.8-16.7h28.7
		c5.2,18.1,4.8,18.2,6.7,19.2c3.3,1.7,9.6,0.5,12.9-3.3c2.1-2.4,3,3.5-23.5-82.9C204.3,115.8,187.9,116,185.6,123.3z M185.1,177.5
		l10.9-38.5l10.9,38.5H185.1z"/>
	<path class="st3" d="M284.3,123.6V174c-28.4-55-26.5-55.5-36.4-55.5c-3.1,0-8.2,1.1-8.2,5.1v81.5c0,6.8,16.3,6.8,16.3,0v-50.5
		c29.2,54.5,27.5,52.8,31.1,54.5c3.2,1.5,7.4,1.6,10.9-0.2c1.7-0.9,2.6-2.2,2.6-3.8v-81.6C300.6,116.9,284.3,116.8,284.3,123.6z"/>
</g>
<path class="st4" d="M187.3,18.7c0,10.3-8.4,18.7-18.7,18.7s-18.7-8.4-18.7-18.7S158.3,0,168.6,0S187.3,8.4,187.3,18.7z"/>
<g>
	<path class="st5" d="M239.1,457.1v-7.8c0-2.7-1.9-4.9-4.5-5.4c-9.1-1.9-15.9-5.8-21.5-11.8c-6.1-6.8-10-17.2-10-30.3
		c0-21.6,12.4-38.4,31.9-43.4c2.4-0.6,4.1-2.8,4.1-5.4v-7.9c0-3.1,2.5-5.6,5.6-5.6h0c3.1,0,5.6,2.5,5.6,5.6v6.8
		c0,2.8,2.1,5.2,4.9,5.5c3.5,0.4,6.8,1.2,9.6,2.1c2.9,1,4.4,4,3.6,6.9l-0.3,1.1c-0.9,3-4.1,4.7-7.1,3.7c-3.4-1.2-7.9-2.1-13.4-2.1
		c-17.7,0-28.7,14.3-28.7,31.9c0,19.9,12.2,31.5,27.9,31.5c6.2,0,11-1,14.8-2.2c3.1-1,6.4,0.8,7.2,3.9l0.2,0.7
		c0.7,2.7-0.8,5.6-3.4,6.6c-2.9,1.1-6.5,2.1-10.6,2.7c-2.7,0.4-4.7,2.7-4.7,5.5v7.5c0,3.1-2.5,5.6-5.6,5.6h0
		C241.6,462.7,239.1,460.2,239.1,457.1z"/>
</g>
<path class="st5" d="M194,475.6c-17.8,19.4-41,30.9-65.1,34.3c-31.3,4.5-64.4-4.6-89.5-27.7c-44.5-40.9-47.5-110.1-6.6-154.6
	c25.4-27.6,61.6-39.2,96.2-34.3c21.1,3,41.6,12.2,58.5,27.7C232,361.8,234.9,431.1,194,475.6z"/>
<path class="st9" d="M194,475.6c-17.8,19.4-41,30.9-65.1,34.3c-21.1-3-41.6-12.2-58.5-27.7c-44.5-40.9-47.5-110.1-6.6-154.6
	c17.8-19.4,41-30.9,65.1-34.3c21.1,3,41.6,12.2,58.5,27.7C232,361.8,234.9,431.1,194,475.6z"/>
<path class="st6" d="M190.5,416.2c-3.7,19.3-14.4,36.5-30.2,48.3c-9.6,7.2-20.3,11.8-31.4,14c-28.8,5.8-59.7-4.9-78.4-30
	c-13.1-17.6-18.3-40-14.2-61.5c3.7-19.3,14.4-36.5,30.2-48.3c16.8-12.5,37.5-17.8,58.2-14.8c1.4,0.2,2.8,0.4,4.1,0.7
	c19,3.8,35.8,14.3,47.5,30C189.4,372.2,194.6,394.7,190.5,416.2z"/>
<path class="st4" d="M190.5,416.2c-3.7,19.3-14.4,36.5-30.2,48.3c-9.6,7.2-20.3,11.8-31.4,14c-18.3-3.7-35.4-13.8-47.4-30
	c-13.1-17.6-18.3-40-14.2-61.5c3.7-19.3,14.4-36.5,30.2-48.3c9.5-7,20.1-11.8,31.3-14.1c19,3.8,35.8,14.3,47.5,30
	C189.4,372.2,194.6,394.7,190.5,416.2z"/>
<g>
	<path class="st5" d="M110.8,457.1v-7.8c0-2.7-1.9-4.9-4.5-5.4c-9.1-1.9-15.9-5.8-21.5-11.8c-6.1-6.8-10-17.2-10-30.3
		c0-21.6,12.4-38.4,31.9-43.4c2.4-0.6,4.1-2.8,4.1-5.4v-7.9c0-3.1,2.5-5.6,5.6-5.6h0c3.1,0,5.6,2.5,5.6,5.6v6.8
		c0,2.8,2.1,5.2,4.9,5.5c3.5,0.4,6.8,1.2,9.6,2.1c2.9,1,4.4,4,3.6,6.9l-0.3,1.1c-0.9,3-4.1,4.7-7.1,3.7c-3.4-1.2-7.9-2.1-13.4-2.1
		c-17.7,0-28.7,14.3-28.7,31.9c0,19.9,12.2,31.5,27.9,31.5c6.2,0,11-1,14.8-2.2c3.1-1,6.4,0.8,7.2,3.9l0.2,0.7
		c0.7,2.7-0.8,5.6-3.4,6.6c-2.9,1.1-6.5,2.1-10.6,2.7c-2.7,0.4-4.7,2.7-4.7,5.5v7.5c0,3.1-2.5,5.6-5.6,5.6h0
		C113.2,462.7,110.8,460.2,110.8,457.1z"/>
</g>
</svg>
