<svg height="512pt" viewBox="0 -11 512.001 512" width="512pt" xmlns="http://www.w3.org/2000/svg"><path d="m196.9375 0h91.742188c9.609374 0 17.941406 6.644531 20.085937 16.011719l4.582031 20.046875v7.382812h-116.410156zm0 0" fill="#919191"/><path d="m105.59375 0h100.671875c9.609375 0 17.945313 6.644531 20.085937 16.011719l4.582032 20.046875v7.382812h-125.339844zm0 0" fill="#afafaf"/><path d="m0 87.566406v-66.960937c0-11.378907 9.226562-20.605469 20.605469-20.605469h94.832031c9.609375 0 17.945312 6.644531 20.085938 16.011719l4.582031 20.046875h351.292969c11.378906 0 20.601562 9.222656 20.601562 20.601562v30.90625zm0 0" fill="#d8d8d8"/><path d="m512 56.660156v30.90625h-30.90625v-30.90625c0-11.382812-9.21875-20.605468-20.601562-20.605468h30.902343c11.386719 0 20.605469 9.222656 20.605469 20.605468zm0 0" fill="#afafaf"/><path d="m491.394531 401.773438c11.378907 0 20.605469-9.226563 20.605469-20.605469v-309.054688h-30.90625l-225.953125 19-224.234375-19h-30.90625v309.054688c0 11.378906 9.226562 20.605469 20.605469 20.605469zm0 0" fill="#f2d67c"/><path d="m512 72.113281v309.054688c0 11.382812-9.21875 20.605469-20.605469 20.605469h-29.84375c10.890625-.546876 19.542969-9.550782 19.542969-20.574219v-309.054688zm0 0" fill="#e2b061"/><path d="m475.945312 370.867188c2.84375 0 5.148438-2.574219 5.148438-5.746094v-293.007813h-450.1875v293.007813c0 3.171875 2.304688 5.746094 5.148438 5.746094zm0 0" fill="#fafeff"/><path d="m389.46875 139.074219v61.8125h-150.464844c-2.84375 0-5.152344-2.308594-5.152344-5.152344v-51.507813c0-2.84375 2.308594-5.152343 5.152344-5.152343zm0 0" fill="#aac9e2"/><path d="m438.855469 144.226562v51.507813c0 2.84375-2.304688 5.152344-5.148438 5.152344h-54.539062v-61.8125h54.539062c2.84375 0 5.148438 2.308593 5.148438 5.152343zm0 0" fill="#6095b2"/><path d="m389.46875 293.601562h-150.464844c-2.84375 0-5.152344-2.308593-5.152344-5.148437v-51.511719c0-2.84375 2.308594-5.148437 5.152344-5.148437h150.464844zm0 0" fill="#aac9e2"/><path d="m438.855469 236.941406v51.511719c0 2.839844-2.304688 5.148437-5.148438 5.148437h-54.539062v-61.808593h54.539062c2.84375 0 5.148438 2.304687 5.148438 5.148437zm0 0" fill="#6095b2"/><g fill="#919191"><path d="m188.007812 146.800781h-115.378906c-4.269531 0-7.726562-3.457031-7.726562-7.726562 0-4.265625 3.457031-7.726563 7.726562-7.726563h115.378906c4.269532 0 7.726563 3.460938 7.726563 7.726563 0 4.269531-3.457031 7.726562-7.726563 7.726562zm0 0"/><path d="m188.007812 177.707031h-115.378906c-4.269531 0-7.726562-3.460937-7.726562-7.726562s3.457031-7.726563 7.726562-7.726563h115.378906c4.269532 0 7.726563 3.460938 7.726563 7.726563s-3.457031 7.726562-7.726563 7.726562zm0 0"/><path d="m152.980469 208.613281h-80.351563c-4.269531 0-7.726562-3.460937-7.726562-7.726562s3.457031-7.726563 7.726562-7.726563h80.351563c4.269531 0 7.726562 3.460938 7.726562 7.726563s-3.457031 7.726562-7.726562 7.726562zm0 0"/><path d="m188.007812 239.515625h-115.378906c-4.269531 0-7.726562-3.457031-7.726562-7.722656 0-4.269531 3.457031-7.726563 7.726562-7.726563h115.378906c4.269532 0 7.726563 3.457032 7.726563 7.726563 0 4.265625-3.457031 7.722656-7.726563 7.722656zm0 0"/><path d="m152.980469 270.421875h-80.351563c-4.269531 0-7.726562-3.457031-7.726562-7.722656 0-4.269531 3.457031-7.726563 7.726562-7.726563h80.351563c4.269531 0 7.726562 3.457032 7.726562 7.726563 0 4.265625-3.457031 7.722656-7.726562 7.722656zm0 0"/><path d="m122.074219 300.296875h-49.445313c-4.269531 0-7.726562-3.457031-7.726562-7.722656 0-4.269531 3.457031-7.726563 7.726562-7.726563h49.449219c4.265625 0 7.726563 3.457032 7.726563 7.726563 0 4.265625-3.460938 7.722656-7.730469 7.722656zm0 0"/><path d="m95.292969 43.785156h-52.539063c-4.269531 0-7.726562-3.460937-7.726562-7.726562 0-4.269532 3.457031-7.726563 7.726562-7.726563h52.539063c4.265625 0 7.726562 3.457031 7.726562 7.726563 0 4.265625-3.460937 7.726562-7.726562 7.726562zm0 0"/></g><path d="m390.4375 489.335938h-80.351562c-9.105469 0-16.484376-7.378907-16.484376-16.484376v-27.8125h113.320313v27.8125c0 9.105469-7.378906 16.484376-16.484375 16.484376zm0 0" fill="#ef9867"/><path d="m406.921875 454.691406v18.160156c0 9.109376-7.375 16.484376-16.484375 16.484376h-30.902344c9.105469 0 16.480469-7.375 16.480469-16.484376v-17.511718h25.757813c1.769531 0 3.5-.226563 5.148437-.648438zm0 0" fill="#d16346"/><path d="m278.148438 437.828125-15.898438-6.222656c-11.847656-4.636719-19.644531-16.058594-19.644531-28.777344v-42.949219c0-9.78125 7.90625-17.722656 17.6875-17.769531 9.84375-.050781 17.851562 7.917969 17.855469 17.761719 0 12.113281 13.390624 36.234375 13.390624 36.234375zm0 0" fill="#afafaf"/><path d="m404.003906 337.902344c-9.800781.183594-17.6875 8.183594-17.6875 18.027344 0-9.957032-8.070312-18.027344-18.027344-18.027344-9.957031 0-18.027343 8.070312-18.027343 18.027344 0-9.957032-8.070313-18.027344-18.027344-18.027344s-18.027344 8.070312-18.027344 18.027344v-76.792969c0-10.105469-8.269531-18.6875-18.375-18.496094-9.796875.183594-17.683593 8.183594-17.683593 18.023437v156.074219c0 11.378907 9.226562 20.601563 20.605468 20.601563h103.015625c11.378907 0 20.605469-9.222656 20.605469-20.601563v-78.335937c0-10.105469-8.269531-18.6875-18.371094-18.5zm0 0" fill="#d8d8d8"/><path d="m422.375 356.402344v78.335937c0 9.597657-6.5625 17.667969-15.453125 19.953125-1.648437.421875-3.378906.648438-5.152344.648438h-25.753906v-.648438c5.40625-1.390625 9.960937-4.925781 12.679687-9.652344 1.765626-3.03125 2.773438-6.550781 2.773438-10.300781v-78.335937c0-3.484375-.980469-6.769532-2.679688-9.59375 3.082032-5.242188 8.726563-8.785156 15.21875-8.910156 10.09375-.183594 18.367188 8.398437 18.367188 18.503906zm0 0" fill="#afafaf"/></svg>