<?xml version="1.0" encoding="iso-8859-1"?>
<!-- Generator: Adobe Illustrator 19.0.0, SVG Export Plug-In . SVG Version: 6.00 Build 0)  -->
<svg version="1.1" id="Layer_1" xmlns="http://www.w3.org/2000/svg" xmlns:xlink="http://www.w3.org/1999/xlink" x="0px" y="0px"
	 viewBox="0 0 512 512" style="enable-background:new 0 0 512 512;" xml:space="preserve">
<circle style="fill:#25B6D2;" cx="256" cy="256" r="66.928"/>
<path style="fill:#32BEA6;" d="M512,294.4v-76.8l-78.112-7.824c-4.464-16.448-11.312-31.904-20.048-46.048l50.368-61.6
	l-54.272-54.304l-64.032,52.416c-13.392-7.056-27.776-12.48-42.944-15.888L294.528,0H256.16h-0.32h-38.368l-8.432,84.352
	c-15.152,3.424-29.552,8.848-42.944,15.888l-64.032-52.416l-54.272,54.304l50.368,61.6c-8.736,14.16-15.568,29.616-20.048,46.048
	L0,217.6v76.8l78.224,7.824c4.496,16.4,11.248,31.872,19.968,45.984l-50.416,61.648l54.272,54.304l64.032-52.416
	c13.392,7.056,27.792,12.464,42.96,15.888L217.488,512h38.368h0.32h38.368l8.432-84.352c15.152-3.424,29.552-8.832,42.96-15.888
	l64.032,52.416l54.272-54.304l-50.416-61.648c8.736-14.144,15.472-29.6,19.968-45.984L512,294.4z M255.984,371.52
	c-63.76,0-115.456-51.728-115.456-115.52c0-63.808,51.696-115.52,115.456-115.52S371.44,192.208,371.44,256
	C371.44,319.808,319.76,371.52,255.984,371.52z"/>
<g>
</g>
<g>
</g>
<g>
</g>
<g>
</g>
<g>
</g>
<g>
</g>
<g>
</g>
<g>
</g>
<g>
</g>
<g>
</g>
<g>
</g>
<g>
</g>
<g>
</g>
<g>
</g>
<g>
</g>
</svg>
