<?xml version="1.0" encoding="utf-8"?>
<!-- Generator: Adobe Illustrator 23.0.2, SVG Export Plug-In . SVG Version: 6.00 Build 0)  -->
<svg version="1.1" id="Layer_1" xmlns="http://www.w3.org/2000/svg" xmlns:xlink="http://www.w3.org/1999/xlink" x="0px" y="0px"
	 viewBox="0 0 512 512" style="enable-background:new 0 0 512 512;" xml:space="preserve">
<style type="text/css">
	.st0{fill:#1AB975;}
	.st1{fill:#1ED688;}
	.st2{fill:#35E298;}
	.st3{fill:#169B62;}
	.st4{fill:#EBEBF0;}
	.st5{fill:#D2D2D7;}
</style>
<path class="st0" d="M512,233.2v270.9c0,2.1-0.9,4-2.3,5.3c-1.3,1.2-3.1,2-5,2H7.3c-1.9,0-3.6-0.7-4.9-1.9c-1.5-1.3-2.4-3.2-2.4-5.4
	V233.2l38.6-18.3l212.7-101.2c3-1.4,6.5-1.4,9.6,0L512,233.2z"/>
<path class="st1" d="M512,233.2v236.7H45.8c-1.9,0-3.6-0.7-4.9-1.9c-1.5-1.3-2.4-3.2-2.4-5.4V214.9l212.7-101.2c3-1.4,6.5-1.4,9.6,0
	L512,233.2z"/>
<path class="st0" d="M512,233.2L260.8,352.7c-3,1.4-6.5,1.4-9.6,0L0,233.2l251.2-119.5c3-1.4,6.5-1.4,9.6,0L512,233.2z"/>
<path class="st2" d="M509.7,509.3c-1.3,1.2-3.1,2-5,2H7.3c-1.9,0-3.6-0.7-4.9-1.9l5-5.9l173.4-184.3l70.5,33.5c3,1.4,6.5,1.4,9.6,0
	l70.5-33.5l173.4,184.3C504.6,503.5,506.6,505.8,509.7,509.3z"/>
<path class="st1" d="M509.7,509.3c-1.3,1.2-3.1,2-5,2H7.3c-1.9,0-3.6-0.7-4.9-1.9l5-5.9l33.5-35.6c0,0,0.1,0.1,0.1,0.1
	c1.3,1.2,3,1.9,4.9,1.9H473l31.6,33.6C504.6,503.5,506.6,505.8,509.7,509.3z"/>
<path class="st3" d="M38.6,214.9v36.7L0,233.2L38.6,214.9z"/>
<path class="st4" d="M437.5,11.5v257.1l-176.7,84.1c-3,1.4-6.5,1.4-9.6,0L74.5,268.6V11.5C74.5,5.7,79.2,1,85,1h342
	C432.8,1,437.5,5.7,437.5,11.5z"/>
<path class="st5" d="M437.5,227.8v40.9l-176.7,84.1c-3,1.4-6.5,1.4-9.6,0L74.5,268.6v-40.9l176.7,84.1c3,1.4,6.5,1.4,9.6,0
	L437.5,227.8z"/>
<g>
	<path class="st1" d="M192.1,75.2h207.6c4.3,0,7.8-3.5,7.8-7.8s-3.5-7.8-7.8-7.8H192.1c-4.3,0-7.8,3.5-7.8,7.8
		S187.8,75.2,192.1,75.2z"/>
	<path class="st1" d="M399.7,101.2H184.2c-4.3,0-7.8,3.5-7.8,7.8c0,4.3,3.5,7.8,7.8,7.8h215.5c4.3,0,7.8-3.5,7.8-7.8
		C407.5,104.6,404,101.2,399.7,101.2z"/>
	<path class="st1" d="M399.7,142.6H112.3c-4.3,0-7.8,3.5-7.8,7.8s3.5,7.8,7.8,7.8h287.4c4.3,0,7.8-3.5,7.8-7.8
		S404,142.6,399.7,142.6z"/>
	<path class="st1" d="M327.6,184.1H112.3c-4.3,0-7.8,3.5-7.8,7.8s3.5,7.8,7.8,7.8h215.3c4.3,0,7.8-3.5,7.8-7.8
		S331.9,184.1,327.6,184.1z"/>
	<path class="st1" d="M327.6,225.6H112.3c-4.3,0-7.8,3.5-7.8,7.8s3.5,7.8,7.8,7.8h215.3c4.3,0,7.8-3.5,7.8-7.8
		S331.9,225.6,327.6,225.6z"/>
	<g>
		<path class="st1" d="M128.8,133.5v-12.2c-7.8-1-13.2-3.8-17.6-8.5c-4.1-4.6-6.8-11.6-6.8-20.5c0-15.6,9.6-27.5,24.4-29.9V50.3h7.5
			v11.9c5.5,0,10.4,1.6,13.2,3l-2.4,8.1c-2.4-1.5-6.5-3-12.6-3c-12,0-19.4,9.7-19.4,21.6c0,13.5,8.2,21.3,18.9,21.3
			c6.7,0,10.9-1.7,13.8-3l1.9,7.6c-2.4,1.3-7.5,3.3-13.5,3.5v12.2H128.8z"/>
	</g>
	<g>
		<path class="st1" d="M378.9,248.5v-12.2c-7.8-1-13.2-3.8-17.6-8.5c-4.1-4.6-6.8-11.6-6.8-20.5c0-15.6,9.6-27.5,24.4-29.9v-12.1
			h7.5v11.9c5.5,0,10.4,1.6,13.2,3l-2.4,8.1c-2.4-1.5-6.5-3-12.6-3c-12,0-19.4,9.7-19.4,21.6c0,13.5,8.2,21.3,18.9,21.3
			c6.7,0,10.9-1.7,13.8-3l1.9,7.6c-2.4,1.3-7.5,3.3-13.5,3.5v12.2H378.9z"/>
	</g>
</g>
</svg>
